<?xml version="1.0" standalone="no"?><!DOCTYPE svg PUBLIC "-//W3C//DTD SVG 1.1//EN" "http://www.w3.org/Graphics/SVG/1.1/DTD/svg11.dtd"><svg t="1785314849001" class="icon" viewBox="0 0 1024 1024" version="1.1" xmlns="http://www.w3.org/2000/svg" p-id="9928" xmlns:xlink="http://www.w3.org/1999/xlink" width="200" height="200"><path d="M913.548256 1024H110.234601c-25.599543 0-46.335173-21.485331-46.335172-47.999143V143.997429C63.899429 117.483616 84.635058 95.998286 110.234601 95.998286h77.237478v47.999143c0 53.027625 41.50783 95.998286 92.706916 95.998285 51.1808 0 92.688631-42.970661 92.688631-95.998285V95.998286h46.335172v47.999143c0 53.027625 41.50783 95.998286 92.688631 95.998285 51.199086 0 92.688631-42.970661 92.68863-95.998285V95.998286h46.353458v47.999143c0 53.027625 41.50783 95.998286 92.688631 95.998285 51.199086 0 92.688631-42.970661 92.68863-95.998285V95.998286h77.255764c25.581257 0 46.335173 21.485331 46.335172 47.999143v832.003428c0 26.513812-20.753915 47.999143-46.353458 47.999143z m-123.57265-656.006571H233.825537c-25.599543 0-46.353458 21.503616-46.353458 47.999143 0 26.513812 20.753915 48.017428 46.353458 48.017428h556.150069c25.599543 0 46.335173-21.503616 46.335172-48.017428 0-26.495527-20.73563-47.999143-46.335172-47.999143z m0 208.014571H233.825537c-25.599543 0-46.353458 21.485331-46.353458 47.999143 0 26.495527 20.753915 47.999143 46.353458 47.999143h556.150069c25.599543 0 46.335173-21.503616 46.335172-47.999143 0-26.513812-20.73563-47.999143-46.335172-47.999143z m7.716433 207.996286H226.090818c-21.320762 0-38.618739 17.901395-38.618739 39.990143 0 22.088748 17.297977 40.008428 38.618739 40.008428h571.601221c21.339048 0 38.618739-17.91968 38.618739-40.008428 0-22.088748-17.279691-39.990143-38.618739-39.990143zM743.622148 191.996571c-25.599543 0-46.335173-21.485331-46.335173-47.999142v-95.998286C697.286975 21.503616 718.022605 0 743.622148 0s46.353458 21.503616 46.353458 47.999143v95.998286c0 26.513812-20.753915 47.999143-46.353458 47.999142z m-231.730719 0c-25.581257 0-46.335173-21.485331-46.335173-47.999142v-95.998286C465.556256 21.503616 486.310171 0 511.891429 0c25.599543 0 46.353458 21.503616 46.353458 47.999143v95.998286c0 26.513812-20.753915 47.999143-46.353458 47.999142z m-231.712434 0c-25.599543 0-46.353458-21.485331-46.353458-47.999142v-95.998286C233.825537 21.503616 254.579452 0 280.178995 0c25.581257 0 46.335173 21.503616 46.335173 47.999143v95.998286c0 26.513812-20.753915 47.999143-46.335173 47.999142z" fill="#1296db" p-id="9929"></path></svg>