<?xml version="1.0" standalone="no"?><!DOCTYPE svg PUBLIC "-//W3C//DTD SVG 1.1//EN" "http://www.w3.org/Graphics/SVG/1.1/DTD/svg11.dtd"><svg t="1789533274923" class="icon" viewBox="0 0 1024 1024" version="1.1" xmlns="http://www.w3.org/2000/svg" p-id="1710" xmlns:xlink="http://www.w3.org/1999/xlink" width="200" height="200"><path d="M832 128a32 32 0 0 0-32-32H160a32 32 0 0 0-32 32v768a32 32 0 0 0 32 32h288v64H160a96 96 0 0 1-96-96V128a96 96 0 0 1 96-96h640a96 96 0 0 1 96 96v384h-64V128zM256 704v-64h160v64H256zM256 256h448v64H256V256z m448 256H256v-64h448v64z m256 195.424L675.2 992H544v-131.2l284.576-284.8z m-350.336 218.912l65.664-21.888 197.024-197.024-43.776-43.776-197.024 197.152z" fill="#3399FF" p-id="1711"></path></svg>